<svg width="137.500000" height="20.000000" viewBox="0 0 137.5 20" fill="none" xmlns="http://www.w3.org/2000/svg" xmlns:xlink="http://www.w3.org/1999/xlink">
	<desc>
			Created with Pixso.
	</desc>
	<defs/>
	<path id="sneakers" d="M15.7358 15.3935C15.7358 19.2467 12.9782 20 8.21686 20C4.71149 20 2.3028 19.3619 1.05695 18.105C0.117981 17.1559 0.00848389 16.0334 0 15.2433L0.000427246 14.9265L0.0020752 14.6253L4.32123 14.6253L4.32123 14.759C4.32123 16.0865 5.30829 16.6787 8.10516 16.6787C9.78802 16.6787 11.4031 16.4671 11.4031 15.4575C11.4031 14.2911 9.89972 14.0688 8.23065 13.872C8.00482 13.8454 7.78259 13.8188 7.57251 13.7914C3.11188 13.2017 0.348755 12.2131 0.348755 9.11603C0.348755 6.94832 1.59814 4.36394 7.54956 4.36394C13.9744 4.36394 15.3245 7.21298 15.3245 9.60217L15.3245 9.73506L11.043 9.73506L11.043 9.60133C11.043 8.37823 10.0048 7.73096 7.54956 7.73096C5.19775 7.73096 4.70679 8.5842 4.70679 9.06204C4.70679 9.74503 5.18671 10.1276 7.88788 10.5332L8.237 10.5855C8.32947 10.5993 8.4223 10.6131 8.51538 10.6271L9.07599 10.7123C12.3557 11.2222 15.7358 11.9945 15.7358 15.3935ZM21.4271 12.5096L21.4271 20L17.2205 20L17.2205 4.46748L21.4271 4.46748L21.4271 6.74594L21.6245 6.74594C22.627 5.37749 24.0412 4.46555 26.819 4.46555C33.3754 4.46555 33.5502 9.96844 33.551 12.2322L33.551 20L29.3701 20L29.3706 12.1287C29.3708 12.0951 29.3712 12.0604 29.3716 12.0247C29.3725 11.9411 29.3735 11.852 29.3735 11.7586C29.3735 10.3922 29.1698 8.08727 25.6033 8.08727C21.9736 8.08727 21.4271 10.4061 21.4271 12.5096ZM51.6033 14.5951C51.1726 17.9292 48.48 20 43.3858 20C38.0696 20 35.0497 17.3232 35.0497 12.1544C35.0497 7.08119 38.1465 4.30913 43.3858 4.30913C45.5806 4.30913 47.3254 4.85922 48.637 5.77393L48.637 5.76839C51.1196 7.44487 51.7302 9.98746 51.7302 12.0211C51.7302 12.4428 51.704 12.8425 51.6628 13.2081L51.5082 13.2081L51.5082 13.2092L39.1364 13.2092C39.4244 15.2853 40.6647 16.3143 43.3858 16.3143C45.8985 16.3143 47.1427 15.615 47.5294 14.5951L51.6033 14.5951ZM47.4846 10.4261L39.2972 10.4261C39.7827 8.85164 41.0605 7.9948 43.3858 7.9948C46.3803 7.9948 47.1407 9.26248 47.4846 10.4261ZM70.499 4.45724L70.499 20L66.2905 20L66.2905 17.8312L66.1589 17.8312C65.1088 19.1825 63.3391 20 60.425 20C53.9161 20 53.1831 14.3213 53.1831 12.2286L53.1839 12.0917C53.2125 9.74991 54.0044 4.45724 60.437 4.45724C63.3054 4.45724 65.0612 5.36281 66.1141 6.73956L66.2905 6.73956L66.2905 4.45724L70.499 4.45724ZM61.6455 16.3766C57.6492 16.3766 57.1984 13.3454 57.1984 12.2286C57.1984 11.0193 57.6235 8.08061 61.6526 8.08061C65.2843 8.08061 66.0273 10.1249 66.0273 12.2286C66.0273 14.5796 65.2851 16.3766 61.6455 16.3766ZM82.2973 10.9554L88.8261 20L83.5998 20L79.2425 13.9633L76.2224 16.9386L76.2224 19.9543L72.0351 19.9543L72.0351 0L76.2224 0L76.2224 11.2226L83.0577 4.46748L88.8847 4.46748L82.2973 10.9554ZM106.943 14.5951C106.512 17.9292 103.82 20 98.7256 20C93.4095 20 90.3896 17.3232 90.3896 12.1544C90.3896 7.08119 93.4863 4.30913 98.7256 4.30913C100.92 4.30913 102.665 4.85922 103.977 5.77393L103.977 5.76839C106.459 7.44487 107.07 9.98747 107.07 12.0212C107.07 12.4428 107.044 12.8425 107.003 13.2081L106.848 13.2081L106.848 13.2092L94.4762 13.2092C94.7642 15.2853 96.0045 16.3143 98.7256 16.3143C101.238 16.3143 102.482 15.615 102.869 14.5951L106.943 14.5951ZM102.824 10.4261L94.6371 10.4261C95.1225 8.85164 96.4004 7.9948 98.7256 7.9948C101.72 7.9948 102.481 9.26248 102.824 10.4261ZM112.76 13.0306L112.76 20L108.551 20L108.551 4.46555L112.76 4.46555L112.76 6.74788L113.022 6.74788C113.886 5.2601 114.843 4.46555 117.508 4.46555C118.639 4.46555 119.538 4.6981 120.265 4.8584L119.595 8.8342C119.203 8.72429 118.14 8.48813 116.81 8.48813C113.691 8.48813 112.76 10.9269 112.76 13.0306ZM137.5 15.3935C137.5 19.2467 134.742 20 129.981 20C126.476 20 124.067 19.3619 122.821 18.105C121.882 17.1559 121.773 16.0334 121.764 15.2433L121.765 14.9265L121.766 14.6253L126.085 14.6253L126.085 14.759C126.085 16.0865 127.073 16.6787 129.869 16.6787C131.552 16.6787 133.167 16.4671 133.167 15.4575C133.167 14.2911 131.664 14.0688 129.995 13.872C129.769 13.8454 129.547 13.8188 129.337 13.7914C124.876 13.2017 122.113 12.2131 122.113 9.11603C122.113 6.94832 123.362 4.36394 129.314 4.36394C135.739 4.36394 137.089 7.21298 137.089 9.60217L137.089 9.73506L132.807 9.73506L132.807 9.60133C132.807 8.37823 131.769 7.73096 129.314 7.73096C126.962 7.73096 126.471 8.5842 126.471 9.06204C126.471 9.74503 126.951 10.1276 129.652 10.5332L130.001 10.5855C130.094 10.5993 130.187 10.6131 130.28 10.6271L130.84 10.7123C134.12 11.2222 137.5 11.9945 137.5 15.3935Z" clip-rule="evenodd" fill="#1D2026" fill-opacity="1.000000" fill-rule="evenodd"/>
</svg>
